<?xml version="1.0" standalone="no"?>
<!DOCTYPE svg PUBLIC "-//W3C//DTD SVG 20010904//EN"
 "http://www.w3.org/TR/2001/REC-SVG-20010904/DTD/svg10.dtd">
<svg version="1.0" xmlns="http://www.w3.org/2000/svg"
 width="512.000000pt" height="512.000000pt" viewBox="0 0 512.000000 512.000000"
 preserveAspectRatio="xMidYMid meet">
<metadata>
Created by potrace 1.11, written by Peter Selinger 2001-2013
</metadata>
<g transform="translate(0.000000,512.000000) scale(0.100000,-0.100000)"
fill="#000000" stroke="none">
<path d="M845 5113 c-84 -11 -207 -47 -282 -83 -254 -119 -433 -328 -520 -607
l-28 -88 -3 -1738 c-2 -1669 -2 -1741 17 -1830 70 -345 337 -629 686 -729 l80
-23 1770 0 1770 0 88 28 c333 104 572 348 668 682 l23 80 4 1705 c2 1236 0
1727 -8 1785 -14 92 -51 218 -87 290 -106 210 -314 396 -530 475 -174 63 -90
60 -1937 59 -924 -1 -1694 -4 -1711 -6z m3192 -940 c20 -9 44 -30 54 -47 18
-30 19 -82 19 -1561 0 -1500 0 -1531 -20 -1562 -41 -68 75 -63 -1539 -61
l-1460 3 -31 30 c-17 16 -35 45 -41 65 -7 23 -9 536 -7 1547 3 1511 3 1512 24
1540 11 15 36 36 55 45 32 17 123 18 1472 18 1324 0 1442 -1 1474 -17z"/>
<path d="M1264 3970 c-53 -21 -54 -27 -54 -402 l0 -347 24 -28 24 -28 1274 -3
c700 -1 1288 0 1306 3 18 3 42 15 53 26 18 18 19 36 19 382 0 357 0 364 -21
383 -20 18 -58 19 -1313 21 -715 1 -1301 -2 -1312 -7z"/>
<path d="M1231 2924 c-19 -25 -21 -40 -21 -201 l0 -175 30 -29 30 -30 181 3
c236 4 219 -14 219 234 0 243 19 224 -229 224 l-190 0 -20 -26z"/>
<path d="M1982 2927 c-21 -22 -22 -32 -22 -199 0 -97 3 -184 6 -193 14 -36 57
-45 224 -45 167 0 210 9 224 45 3 9 6 96 6 194 0 237 16 221 -231 221 -181 0
-186 -1 -207 -23z"/>
<path d="M2730 2930 c-19 -19 -20 -33 -20 -208 0 -245 -18 -226 221 -230 l179
-3 30 30 30 29 0 175 c0 161 -2 176 -21 201 l-20 26 -190 0 c-176 0 -190 -1
-209 -20z"/>
<path d="M3474 2929 c-17 -19 -19 -41 -22 -200 l-3 -179 30 -31 31 -30 179 3
c239 4 221 -15 221 230 0 175 -1 189 -20 208 -19 19 -33 20 -208 20 -179 0
-190 -1 -208 -21z"/>
<path d="M1235 2255 c-25 -24 -25 -27 -25 -200 l0 -177 29 -29 29 -29 175 0
c161 0 176 2 201 21 l26 20 0 190 c0 248 19 229 -225 229 -184 0 -186 0 -210
-25z"/>
<path d="M1981 2254 c-19 -25 -21 -40 -21 -206 0 -178 0 -179 25 -204 l25 -25
186 3 c241 4 224 -14 224 233 l0 184 -26 20 c-25 20 -40 21 -210 21 l-183 0
-20 -26z"/>
<path d="M2730 2260 c-19 -19 -20 -33 -20 -209 l0 -190 26 -20 c25 -19 40 -21
201 -21 l175 0 29 29 29 29 0 177 c0 239 15 225 -235 225 -172 0 -186 -1 -205
-20z"/>
<path d="M3479 2261 l-24 -19 -3 -504 c-1 -276 0 -513 3 -525 3 -12 15 -32 27
-43 20 -19 35 -20 199 -20 163 0 178 2 203 21 l26 20 0 525 c0 511 -1 525 -20
544 -19 19 -33 20 -204 20 -166 0 -186 -2 -207 -19z"/>
<path d="M1239 1591 c-24 -19 -24 -22 -24 -211 0 -248 -18 -230 225 -230 164
0 179 2 204 21 l26 20 0 189 0 189 -26 20 c-25 19 -40 21 -204 21 -160 0 -180
-2 -201 -19z"/>
<path d="M1985 1585 c-25 -24 -25 -26 -25 -205 0 -244 -14 -230 230 -230 244
0 230 -14 230 230 0 244 14 230 -230 230 -179 0 -181 0 -205 -25z"/>
<path d="M2732 1590 c-21 -20 -22 -28 -22 -210 l0 -189 26 -20 c25 -19 40 -21
205 -21 242 0 232 -11 227 254 -4 220 12 206 -232 206 -170 0 -184 -1 -204
-20z"/>
</g>
</svg>
